<svg style="max-height: 500px" xml:space="preserve" xmlns:xlink="http://www.w3.org/1999/xlink" xmlns="http://www.w3.org/2000/svg" version="1.1" viewBox="200.83507200000003 470.88 682.5600000000001 140.4" width="682.5600000000001" height="140.4">
    <path style="fill:rgb(152,76,60);fill-rule:nonzero;" d="M356.77,540C356.77,577.12 323.07,607.21 281.5,607.21C239.93,607.21 206.23,577.12 206.23,540C206.23,502.88 239.93,472.79 281.5,472.79C323.07,472.79 356.77,502.88 356.77,540ZM335.26,540C335.26,513.28 311.19,491.61 281.49,491.61C251.79,491.61 227.72,513.28 227.72,540C227.72,566.72 251.79,588.39 281.49,588.39C311.19,588.39 335.26,566.72 335.26,540Z"/>
    <path style="fill:rgb(152,76,60);fill-rule:nonzero;" d="M469.75,585.7L469.75,604.52L375.66,604.52L375.66,475.48L397.17,475.48L397.17,585.7L469.76,585.7L469.75,585.7Z"/>
    <path style="fill:rgb(152,76,60);fill-rule:nonzero;" d="M595.53,604.52L569.98,604.52L513.23,542.58L506.81,548.02L506.81,604.52L485.3,604.52L485.3,475.48L506.81,475.48L506.81,514.52C506.81,517.26 506.29,519.97 505.27,522.51L502.79,528.71L505.45,529.77L506.66,526.74C507.96,523.48 510.05,520.59 512.72,518.32L563.26,475.47L592.43,475.47L527.59,530.4L595.52,604.51L595.53,604.52Z"/>
    <path style="fill:rgb(152,76,60);fill-rule:nonzero;" d="M742.67,604.52L719.4,604.52L709.42,580.33L639.46,580.33L629.48,604.52L606.21,604.52L659.44,475.48L689.43,475.48L742.66,604.52L742.67,604.52ZM701.66,561.51L677.54,503.03C676.49,500.49 675.94,497.78 675.92,495.03L675.86,488.91L672.99,488.94L673.04,494.46C673.07,497.34 672.51,500.2 671.41,502.87L647.22,561.51L701.66,561.51Z"/>
    <path style="fill:rgb(152,76,60);fill-rule:nonzero;" d="M823.42,566.88L779.68,566.88L779.68,604.52L758.17,604.52L758.17,475.48L828.07,475.48C853.31,475.48 873.77,495.94 873.77,521.18C873.77,540.58 861.68,557.15 844.62,563.78C844.62,563.78 840.41,566.88 823.42,566.88ZM852.27,521.18C852.27,506.33 841.44,494.3 828.07,494.3L779.68,494.3L779.68,548.07L828.07,548.07C841.44,548.07 852.27,536.03 852.27,521.19L852.27,521.18Z"/>
</svg>